<svg width="99" height="54" viewBox="0 0 99 54" fill="none" xmlns="http://www.w3.org/2000/svg">
    <path d="M73.6938 48.9635C72.2179 49.8019 70.7164 50.538 70.3942 50.6367C68.0216 51.3625 65.1067 49.6704 66.1446 47.7873L67.0891 46.5797C66.2064 46.667 65.3295 46.7629 64.448 46.8245C63.2019 48.2682 61.5183 49.5159 59.2448 50.4555C57.2163 51.2942 55.4403 51.5265 54.7264 51.5891C54.4253 51.647 52.7281 51.9233 51.4002 51.0689C49.1466 49.6185 51.0255 48.841 50.9009 47.9546L50.7695 46.183C47.6844 45.625 45.4267 45.0863 42.5378 44.1112L42.5359 44.1144C42.0076 43.9314 38.3485 45.1981 35.1812 43.5562C33.8339 42.8579 31.8177 41.6209 30.3583 41.0261C28.1351 40.1202 23.8495 38.4271 22.9038 36.7991L22.8959 36.8007C22.2451 35.7508 22.8339 34.8264 24.0996 34.4457C22.1997 33.8734 20.8906 33.5461 18.8323 32.8114C15.8354 31.742 11.9626 29.9829 8.99099 27.8956C5.22934 25.2534 6.29453 22.9414 11.3616 23.1714C13.8454 23.284 16.6688 23.7161 18.329 24.0904C17.967 22.7075 17.4806 19.3465 18.8531 17.7722C19.582 16.9361 20.9145 16.5248 22.4295 16.8358C23.9055 17.1385 25.2297 18.2063 26.3153 19.4873C30.4248 24.3376 30.1749 28.0253 30.9922 28.7989C31.6984 29.4669 35.3614 30.2166 36.4778 30.3804C40.3555 30.949 43.5772 30.568 46.726 29.1269L53.2717 26.0522C55.1535 25.1332 57.4655 25.2948 58.8374 26.6484C59.1762 26.9828 61.2568 28.0763 62.1369 28.4184C65.7707 27.7729 68.9904 27.1299 72.9045 26.5256L72.9014 26.5196C76.8403 25.9461 80.7187 25.4438 84.8734 25.3138C86.8821 25.2511 88.9155 25.3071 90.8356 25.63C92.5463 25.9174 93.4799 26.2361 94.7292 27.0021L94.7348 26.9986C97.2985 28.9022 95.0032 33.1257 93.8595 35.0015C91.1895 39.3804 85.9334 42.4424 79.5407 44.2159C78.7865 45.886 75.8059 47.7635 73.6938 48.9635Z"
          fill="#3E4143"/>
    <path d="M72.0398 48.0655C70.3449 49.5339 68.6293 50.8391 68.2657 51.0232C65.5891 52.3791 62.504 49.8691 63.7976 46.7467L64.9353 44.7224C63.9542 44.9313 62.9784 45.1541 62.0003 45.3214C60.5114 47.7501 58.5545 49.896 55.9706 51.5895C53.6656 53.1008 51.6865 53.6129 50.8937 53.7692C50.5564 53.8857 48.6609 54.4629 47.2622 53.1847C44.8879 51.0149 47.0234 49.6134 46.9553 48.1908L46.9495 45.3383C43.5872 44.6742 41.1369 43.9778 38.024 42.6247L38.0217 42.63C37.4526 42.3748 33.3137 44.7036 29.9458 42.2944C28.5133 41.2695 26.3845 39.4263 24.8199 38.5777C22.4364 37.2848 17.8379 34.8793 16.9219 32.3211L16.9129 32.3246C16.2771 30.6782 16.9995 29.1392 18.4267 28.4263C16.3741 27.648 14.9548 27.22 12.7399 26.1914C9.51533 24.694 5.37778 22.15 2.26094 19.006C-1.6846 15.0262 -0.327113 11.2081 5.249 11.1893C7.98228 11.1803 11.0653 11.6611 12.8691 12.138C12.5777 9.93117 12.3049 4.53758 13.9436 1.88791C14.814 0.480854 16.3174 -0.286484 17.9658 0.0993853C19.5713 0.474832 20.9497 2.09845 22.0473 4.08477C26.2036 11.6057 25.638 17.5839 26.4799 18.771C27.2069 19.7961 31.1923 20.7253 32.4118 20.9039C36.6482 21.5242 40.2348 20.6602 43.8243 18.0891L51.2923 12.6165C53.4423 10.9864 55.982 11.0696 57.3902 13.1513C57.7379 13.6655 59.9493 15.2722 60.8941 15.757C64.9564 14.4342 68.5617 13.1471 72.9301 11.8693L72.9274 11.8598C77.3211 10.6297 81.6421 9.51913 86.2394 8.9892C88.462 8.73303 90.7024 8.66679 92.7968 9.04062C94.663 9.37368 95.6686 9.81653 96.9879 10.9579L96.9942 10.9521C99.6753 13.8306 96.8096 20.8319 95.3995 23.9515C92.108 31.2327 86.0647 36.5856 78.8676 39.9433C77.9041 42.7004 74.466 45.9638 72.0398 48.0655Z"
          fill="#21211D"/>
    <path fill-rule="evenodd" clip-rule="evenodd"
          d="M43.1186 23.2807C49.3314 22.242 55.1984 20.5171 60.9673 18.6593C65.1567 17.3102 69.4071 15.811 73.7257 14.5274C77.5154 13.4008 91.7347 9.52749 94.9638 12.8734C96.3069 14.2654 94.8172 19.9893 92.4052 24.3918C90.6516 27.5927 88.3758 30.4304 85.3273 32.7943C79.2516 37.5053 71.0091 40.5207 64.0348 42.079C57.6216 43.5122 52.6139 43.6281 46.7459 42.4769C40.2042 41.1936 34.0852 38.1173 28.5911 33.1582C26.8936 31.4783 25.2169 29.9505 23.8082 28.7184C21.5771 26.7668 21.0245 26.3721 18.3431 25.4415C15.3506 24.4034 12.471 23.1409 9.6133 21.3125C8.41331 20.5449 2.06917 16.0384 2.87217 14.5128C3.43917 13.4351 9.54452 14.2584 10.698 14.4861C12.8332 14.9079 14.7672 15.6004 16.5228 16.5331C16.0471 14.3113 15.6343 12.2138 15.4745 10.1457C15.3953 9.11847 15.3376 2.34236 17.3263 2.80814C19.1255 3.22898 21.6436 9.7429 22.1142 11.4724C22.6249 13.3484 22.9376 15.2467 23.1956 17.1684C23.3608 18.3992 23.496 19.492 24.3148 20.5255C24.9397 21.3143 25.9125 21.8913 27.6482 22.5447C32.5188 24.3786 38.081 24.1231 43.1186 23.2807Z"
          fill="#6BACC3"/>
    <path fill-rule="evenodd" clip-rule="evenodd"
          d="M94.6171 12.5719C94.136 12.6729 93.5783 12.8182 92.9388 13.0248C90.0353 13.9628 87.7018 15.9239 85.0517 17.5243C83.0338 18.7426 79.9038 20.5687 76.2318 22.287C77.1203 29.515 82.0214 32.245 88.1027 28.1107C84.8643 33.7716 78.5813 33.4691 75.9534 25.4471C75.7076 24.6967 75.6754 23.6028 75.7327 22.5184C74.7346 22.9765 73.6995 23.4245 72.6381 23.8485C67.4427 25.9245 54.3171 29.5877 45.3314 29.3498C36.3457 29.112 28.8776 27.2445 24.8887 25.6111C20.8998 23.978 20.2671 23.2561 20.2671 23.2561C20.2671 23.2561 16.5562 22.9455 14.3389 22.1946C12.1219 21.4437 10.7547 20.7472 10.7547 20.7472C10.7547 20.7472 10.7922 20.5689 11.8722 20.7908C12.952 21.0127 13.97 21.9 16.1636 22.0774C18.3572 22.2548 19.0645 22.0938 19.0645 22.0938C19.0645 22.0938 15.1776 20.8795 12.4079 19.7087C9.6383 18.5379 8.34404 17.4407 8.70235 17.4706C9.06066 17.5005 10.2922 18.1582 11.1139 18.6115C11.9355 19.0646 14.7389 19.969 16.3215 20.4802C17.9041 20.9914 18.4869 21.0562 18.4869 21.0562C18.4869 21.0562 16.0464 19.2095 13.1468 18.1323C10.2472 17.0551 8.5701 16.4151 8.5701 16.4151C8.5701 16.4151 9.00854 16.221 10.7246 16.7266C12.4408 17.2325 14.2926 17.777 16.0232 18.6358C17.7538 19.4947 18.4026 20.0874 18.4026 20.0874C18.4026 20.0874 17.7281 17.7719 17.365 14.3394C17.0018 10.9066 17.1275 9.62002 17.283 10.1442C17.4381 10.6683 17.5097 11.3282 17.6901 12.47C17.8706 13.6119 18.2766 16.9988 18.9277 18.7405C19.579 20.4823 20.0299 20.5967 20.0299 20.5967C20.0299 20.5967 19.962 16.7547 19.4694 14.5203C18.9768 12.2861 18.3699 10.5425 18.3593 10.2778C18.3484 10.0131 18.5784 10.1805 19.0208 11.1792C19.4629 12.1782 20.4535 15.6742 20.7217 17.8731C20.9899 20.0721 21.0634 20.7764 21.0634 20.7764L21.6496 20.9297C21.6496 20.9297 21.5637 15.5412 21.1743 13.6564C20.785 11.7717 20.0287 9.63647 20.2675 10.0247C20.5066 10.4128 20.8382 10.8858 21.147 11.8898C21.4555 12.8939 22.0862 16.316 22.2652 18.5184C22.4443 20.7211 22.5033 21.0722 22.5033 21.0722C22.5033 21.0722 24.4044 21.7184 26.3903 22.0213C26.7585 22.1939 27.175 22.3664 27.6482 22.5446C32.5188 24.3785 38.081 24.123 43.1186 23.2806C49.3314 22.2418 55.1984 20.517 60.9672 18.6592C65.1567 17.3101 69.407 15.8108 73.7257 14.5272C77.3929 13.437 90.8269 9.77474 94.6171 12.5719ZM55.1887 30.2385C55.5141 30.2256 55.7925 30.5654 55.8101 30.9973C55.828 31.4293 55.5783 31.7901 55.2526 31.8033C54.927 31.8163 54.6486 31.4765 54.631 31.0446C54.6131 30.6126 54.8628 30.2515 55.1887 30.2385ZM58.5647 29.5032C59.1011 29.4816 59.5597 30.0412 59.5887 30.753C59.6179 31.4647 59.2065 32.0593 58.6701 32.0808C58.1337 32.1023 57.6751 31.5425 57.6461 30.8308C57.617 30.119 58.0281 29.5247 58.5647 29.5032ZM62.6358 28.4106C63.2952 28.3842 63.8633 29.1784 63.9043 30.1843C63.9456 31.1905 63.4441 32.0273 62.7847 32.0537C62.1255 32.0801 61.5574 31.2861 61.5162 30.28C61.4752 29.2741 61.9764 28.4371 62.6358 28.4106ZM67.0751 26.4083C67.909 26.375 68.6267 27.3788 68.6786 28.6506C68.7305 29.9224 68.0968 30.9804 67.2632 31.0138C66.4296 31.0471 65.7116 30.0433 65.6598 28.7715C65.6079 27.4997 66.2416 26.4417 67.0751 26.4083ZM71.8923 25.2859C72.5517 25.2595 73.1664 26.0519 73.265 27.0555C73.3637 28.0593 72.9093 28.8943 72.2496 28.9207C71.5905 28.9471 70.9755 28.1549 70.8769 27.1511C70.7782 26.1475 71.2326 25.3123 71.8923 25.2859Z"
          fill="#4083A6"/>
    <path fill-rule="evenodd" clip-rule="evenodd"
          d="M37.2217 23.7111C37.2217 23.7111 41.271 23.3435 45.4618 20.3413C49.6524 17.3391 51.906 15.6469 52.9921 14.8229C54.0783 13.999 54.7076 14.1792 55.0606 14.6989C55.4136 15.2189 57.6521 17.2242 59.4314 18.1389C61.2104 19.0535 64.2835 20.1627 64.8234 20.1822C65.3633 20.2016 65.6234 20.4789 65.1764 20.7022C64.7291 20.9254 57.2876 24.5507 52.5112 25.3993C47.7351 26.2477 41.8236 25.7039 39.9886 25.4489C38.1532 25.1936 37.7655 24.8395 37.464 24.5641C37.1624 24.2885 37.2217 23.7111 37.2217 23.7111Z"
          fill="#6BACC3"/>
    <path fill-rule="evenodd" clip-rule="evenodd"
          d="M52.9846 16.6716C55.7811 19.1001 58.9584 20.9808 62.7286 21.8424C62.1864 22.0847 61.578 22.3503 60.9248 22.6253C57.3596 20.8178 54.92 18.806 52.9846 16.6716ZM60.3882 22.8488C59.9062 23.0477 59.405 23.249 58.8931 23.4477C55.8668 21.7808 53.7089 19.9538 51.9616 18.0273C54.4264 20.1674 57.1868 21.882 60.3882 22.8488ZM57.9497 23.8053C57.5328 23.9596 57.1125 24.1102 56.6925 24.254C54.1656 22.7402 52.2861 21.105 50.7315 19.391C52.8809 21.2571 55.2547 22.7999 57.9497 23.8053ZM55.6431 24.5989C55.2776 24.7137 54.9156 24.8217 54.5594 24.921C52.35 23.5635 50.6108 22.1153 49.1222 20.6056C51.1243 22.2299 53.2799 23.6082 55.6431 24.5989ZM53.7272 25.1394C53.3517 25.2314 52.9865 25.3111 52.6349 25.3764C50.6226 24.0951 49.0101 22.736 47.617 21.3231C49.5023 22.8527 51.5241 24.1643 53.7272 25.1394ZM51.0319 25.6154C50.7308 25.6511 50.4278 25.6821 50.1235 25.709C48.6669 24.6748 47.434 23.596 46.3371 22.4835C47.8115 23.6798 49.3694 24.7427 51.0319 25.6154ZM48.0918 25.8308C47.822 25.8401 47.5535 25.8466 47.2867 25.8507C46.1319 24.9762 45.1225 24.0715 44.2076 23.1439C45.4398 24.1437 46.7304 25.0505 48.0918 25.8308ZM45.5135 25.8463C45.3071 25.8422 45.103 25.8371 44.9022 25.8308C44.0862 25.1624 43.3451 24.4782 42.6574 23.781C43.5755 24.5257 44.5258 25.2187 45.5135 25.8463ZM43.2712 25.7555C43.0827 25.7442 42.899 25.7321 42.7204 25.7196C42.03 25.1367 41.3937 24.5421 40.7976 23.9376C41.5966 24.5857 42.42 25.1948 43.2712 25.7555ZM40.4538 25.5086C40.3336 25.4943 40.2227 25.4801 40.1215 25.4667C39.7435 25.1211 39.3819 24.7716 39.0338 24.4189C39.4987 24.796 39.9719 25.1598 40.4538 25.5086Z"
          fill="#4284A7"/>
    <path d="M87.5887 19.7602L86.5469 19.8019L86.5395 19.6919L86.5268 19.5842L86.5087 19.4781L86.4855 19.3741L86.4575 19.2724L86.4244 19.1726L86.3869 19.0753L86.3445 18.9806L86.2977 18.8882L86.2465 18.7985L86.1912 18.7114L86.1316 18.6271L86.0684 18.5461L86.0012 18.4685L85.9304 18.3937L85.8563 18.3228L85.7787 18.2552L85.6976 18.191L85.6138 18.131L85.5271 18.0752L85.4377 18.0231L85.3458 17.9756L85.2515 17.9323L85.1545 17.8936L85.0556 17.8593L84.9546 17.8299L84.8517 17.8054L84.7468 17.7859L84.6407 17.7713L84.5326 17.7623L84.4228 17.7583L84.3116 17.76L84.2695 16.7279L84.4335 16.7253L84.5956 16.7311L84.7561 16.7448L84.9145 16.7663L85.0704 16.7955L85.2237 16.8321L85.3743 16.8759L85.5218 16.9268L85.6656 16.9845L85.8062 17.0487L85.9431 17.1198L86.0756 17.1964L86.2044 17.2796L86.3285 17.3688L86.448 17.463L86.5631 17.5631L86.6734 17.6687L86.7781 17.7792L86.8777 17.8948L86.9715 18.0152L87.0597 18.1398L87.1419 18.2691L87.2181 18.4027L87.2876 18.54L87.3509 18.6816L87.4069 18.8265L87.4562 18.975L87.4982 19.1267L87.5324 19.2812L87.5593 19.4382L87.5781 19.5983L87.5887 19.7602ZM84.5275 23.0479L84.4853 22.0159L84.5963 22.0085L84.7054 21.996L84.8121 21.9781L84.9171 21.9552L85.0204 21.9272L85.1206 21.8947L85.2184 21.8575L85.3145 21.8153L85.4081 21.769L85.4986 21.7182L85.5864 21.6636L85.6712 21.6045L85.7534 21.5418L85.8317 21.4755L85.9072 21.4053L85.9792 21.3317L86.0471 21.2553L86.1115 21.1751L86.1722 21.092L86.2287 21.006L86.2813 20.9173L86.3292 20.8263L86.3728 20.7325L86.4121 20.6366L86.4464 20.5391L86.4761 20.4393L86.5008 20.3367L86.5208 20.2329L86.5353 20.128L86.5446 20.0207L86.5485 19.9119L86.5469 19.8019L87.5887 19.7602L87.5913 19.9225L87.5855 20.0833L87.5716 20.2419L87.55 20.3992L87.5204 20.5539L87.4836 20.7052L87.4396 20.8541L87.3881 21.0007L87.3298 21.1434L87.2649 21.2821L87.1934 21.4176L87.1158 21.5489L87.0319 21.6766L86.9421 21.7995L86.8466 21.9181L86.7454 22.0321L86.6391 22.1409L86.5275 22.2449L86.4107 22.3436L86.2896 22.4365L86.1636 22.5238L86.0327 22.6053L85.8982 22.6806L85.7592 22.7496L85.6168 22.8122L85.4699 22.868L85.3201 22.9166L85.1672 22.9581L85.0113 22.9921L84.8522 23.0188L84.6908 23.0373L84.5275 23.0479ZM81.2082 20.0157L82.25 19.974L82.2574 20.084L82.2702 20.1917L82.2882 20.2978L82.3114 20.402L82.3394 20.5037L82.3725 20.6033L82.4101 20.7005L82.4527 20.7955L82.4992 20.8881L82.5504 20.9775L82.6058 21.0646L82.6653 21.1489L82.7285 21.23L82.7957 21.3076L82.8666 21.3824L82.9407 21.4533L83.0183 21.5209L83.0991 21.5848L83.1832 21.6448L83.27 21.7011L83.359 21.7528L83.4512 21.8002L83.5457 21.8438L83.642 21.8822L83.7412 21.9163L83.8424 21.9459L83.9452 21.9705L84.0501 21.9899L84.1562 22.0045L84.2644 22.0136L84.3742 22.0175L84.4853 22.0159L84.5275 23.0479L84.3635 23.0505L84.2014 23.0447L84.0409 23.031L83.8824 23.0095L83.7266 22.9803L83.5732 22.9437L83.4229 22.9002L83.2756 22.8495L83.1311 22.7915L82.9907 22.7272L82.8541 22.6565L82.7211 22.5794L82.5926 22.4962L82.4687 22.4075L82.3489 22.313L82.2338 22.213L82.1236 22.1074L82.0189 21.9969L81.9193 21.8813L81.8255 21.7609L81.7372 21.6363L81.655 21.507L81.5788 21.3731L81.5091 21.2356L81.4461 21.0943L81.39 20.9493L81.3407 20.8011L81.2988 20.6489L81.2645 20.4946L81.2376 20.3376L81.2189 20.1776L81.2082 20.0157ZM84.2695 16.7279L84.3116 17.76L84.2007 17.7674L84.0916 17.7799L83.9848 17.7977L83.8799 17.8206L83.7771 17.8484L83.6763 17.8813L83.5781 17.9184L83.4824 17.9605L83.3889 18.0069L83.2983 18.0576L83.2105 18.1122L83.1258 18.1713L83.0438 18.2338L82.965 18.3005L82.8897 18.3705L82.8177 18.4442L82.7496 18.521L82.6855 18.6007L82.6245 18.6843L82.5678 18.77L82.5159 18.8583L82.4677 18.9498L82.424 19.0433L82.3848 19.139L82.3503 19.2372L82.3207 19.3373L82.2959 19.4389L82.2762 19.5425L82.2616 19.6479L82.2523 19.7553L82.2484 19.8639L82.25 19.974L81.2082 20.0157L81.2057 19.8533L81.2115 19.6928L81.2254 19.5339L81.2469 19.3771L81.2763 19.2226L81.3131 19.0704L81.3576 18.9213L81.4088 18.7758L81.4669 18.6329L81.532 18.4935L81.6034 18.3585L81.6812 18.2267L81.7653 18.0993L81.8544 17.9768L81.9501 17.8577L82.0515 17.7437L82.1578 17.6349L82.2692 17.5311L82.386 17.4325L82.5073 17.3394L82.6333 17.252L82.7642 17.1705L82.8988 17.0952L83.0377 17.0262L83.1806 16.9637L83.327 16.9081L83.4764 16.8594L83.6297 16.8178L83.7856 16.7837L83.9447 16.7571L84.1062 16.7385L84.2695 16.7279Z"
          fill="#5491B1"/>
    <path fill-rule="evenodd" clip-rule="evenodd"
          d="M84.2905 17.244C85.7648 17.1852 87.0083 18.321 87.0678 19.7811C87.1274 21.2414 85.9806 22.4729 84.5064 22.532C83.0322 22.5911 81.7887 21.4552 81.7291 19.9949C81.6694 18.5348 82.8163 17.3031 84.2905 17.244Z"
          fill="#FEFEFE"/>
    <path d="M84.446 21.0532C85.0958 21.0272 85.6012 20.4844 85.5749 19.8409C85.5487 19.1974 85.0007 18.6968 84.3509 18.7228C83.7012 18.7488 83.1958 19.2916 83.222 19.9351C83.2483 20.5787 83.7963 21.0792 84.446 21.0532Z"
          fill="#4083A6"/>
    <path d="M84.2751 19.8288C84.4951 19.82 84.6663 19.6361 84.6574 19.4182C84.6485 19.2003 84.4629 19.0308 84.2429 19.0396C84.0229 19.0484 83.8517 19.2322 83.8606 19.4501C83.8695 19.6681 84.0551 19.8376 84.2751 19.8288Z"
          fill="#FEFEFE"/>
    <path fill-rule="evenodd" clip-rule="evenodd"
          d="M50.216 51.0712C50.216 51.0712 51.985 50.87 54.4207 49.2732C56.8566 47.6765 57.9493 46.231 59.0092 44.7871C60.0691 43.3432 62.6638 38.3827 62.8934 37.5586C63.1231 36.7346 61.5292 37.1895 60.5976 37.7483C59.6661 38.3072 57.8569 39.1292 55.1005 40.9346C52.344 42.7399 50.779 43.0958 50.2028 44.2921C49.6263 45.4886 49.712 45.9743 49.7321 47.2772C49.7525 48.58 49.8931 48.8026 49.5334 49.6644C49.1737 50.5263 48.9611 50.9584 49.1661 51.1458C49.3713 51.3332 50.216 51.0712 50.216 51.0712Z"
          fill="#6BACC3"/>
    <path fill-rule="evenodd" clip-rule="evenodd"
          d="M62.6793 37.1319C62.4547 37.3679 62.2052 37.6755 61.9278 38.0863C60.8415 39.6944 58.3139 44.6846 56.8033 46.3749C55.2927 48.065 53.887 49.0991 53.887 49.0991C53.887 49.0991 56.0242 46.6341 57.0734 44.9298C58.1228 43.2256 60.4496 38.9605 60.6664 38.6258C60.883 38.2911 58.1267 43.3231 56.4874 45.0836C54.848 46.8441 53.0312 48.2859 52.716 48.6246C52.4005 48.9632 55.1093 45.9862 56.7836 43.4749C58.4582 40.9632 59.7344 38.3696 59.7344 38.3696C59.7344 38.3696 57.4715 41.785 56.1555 43.4021C54.8394 45.0193 52.4235 47.1042 51.7548 47.6525C51.0861 48.2009 54.6708 44.1134 55.765 42.7008C56.8589 41.2879 57.3013 40.0317 57.3013 40.0317C57.3013 40.0317 56.5643 40.5176 55.2112 42.0384C53.8583 43.5592 51.3416 46.3981 51.0933 46.7663C50.8453 47.1348 51.3006 45.3891 52.9057 43.5974C54.5108 41.8056 55.7261 40.9422 55.1493 41.3239C54.5724 41.7056 53.356 42.5363 52.4821 42.8974C52.1418 43.038 51.5586 43.2229 50.9736 43.3961C51.8034 42.761 53.1551 42.2088 55.1005 40.9347C57.8569 39.1293 59.6661 38.3073 60.5976 37.7484C61.2519 37.3558 62.233 37.0147 62.6793 37.1319Z"
          fill="#4485A8"/>
    <path fill-rule="evenodd" clip-rule="evenodd"
          d="M26.6469 30.2737C26.6469 30.2737 30.806 34.3079 34.3478 36.5106C37.8899 38.7132 39.1527 39.4442 39.1527 39.4442C39.1527 39.4442 36.1259 40.2004 34.6096 40.5055C33.0934 40.8103 32.2937 40.5492 31.5824 40.0404C30.8713 39.5315 27.8548 37.0553 26.1624 36.1372C24.47 35.2193 21.6517 33.551 20.9367 32.9447C20.2215 32.3383 19.2024 31.2608 19.5743 30.9806C19.7596 30.8411 21.7615 31.5682 23.9838 31.259C24.87 31.1357 25.7916 30.8474 26.6469 30.2737Z"
          fill="#6BACC3"/>
    <path fill-rule="evenodd" clip-rule="evenodd"
          d="M28.2608 31.7659C27.7387 31.8631 27.1029 31.9523 26.4486 31.9785C24.9276 32.0394 22.1346 31.871 22.0007 31.7902C21.8668 31.7094 24.1846 32.5005 25.3832 32.5388C26.1341 32.5626 27.7311 32.3919 28.8194 32.2611C28.6232 32.089 28.4363 31.9231 28.2608 31.7659ZM29.3225 32.6981C28.5718 32.8026 27.6824 32.9219 27.0777 32.9881C25.8425 33.1238 23.2973 33.1611 23.1426 33.1027C22.9878 33.0441 25.4696 33.5915 27.2986 33.6047C28.261 33.6114 29.2769 33.449 30.0234 33.2934C29.7816 33.0912 29.5474 32.892 29.3225 32.6981ZM30.6807 33.8363C30.107 33.981 29.3306 34.1265 28.4959 34.1388C26.7991 34.1635 24.6078 34.3375 24.6078 34.3375C24.6078 34.3375 26.7286 34.576 28.7358 34.6895C29.7373 34.7463 30.692 34.5848 31.3971 34.4088C31.1546 34.2184 30.9151 34.0269 30.6807 33.8363ZM32.5889 35.314C32.1547 35.49 31.5068 35.682 30.6089 35.7788C28.7018 35.9845 27.1537 35.9171 27.1537 35.9171C27.1537 35.9171 29.9117 36.3025 31.3704 36.3087C32.0945 36.312 32.8805 36.132 33.4888 35.95C33.1895 35.7462 32.8889 35.5331 32.5889 35.314ZM34.6353 36.6891C34.3226 36.9626 33.8128 37.2567 33.0235 37.3422C31.4413 37.5134 29.8584 37.663 29.8584 37.663C29.8584 37.663 32.6531 37.8745 33.6511 37.7913C34.2624 37.7404 35.1279 37.5175 35.7069 37.3526C35.3773 37.1493 35.0204 36.9283 34.6353 36.6891ZM36.966 38.1267C36.5143 38.2775 35.7688 38.4676 34.7267 38.5459C32.8822 38.6844 31.4879 38.6541 31.4879 38.6541C31.4879 38.6541 34.0958 39.0886 35.8318 38.9545C36.6853 38.8885 37.3841 38.7764 37.8742 38.6798C37.6161 38.5234 37.3146 38.34 36.966 38.1267Z"
          fill="#4485A8"/>
    <path fill-rule="evenodd" clip-rule="evenodd"
          d="M26.1158 27.6458C41.759 35.0106 57.9195 34.3466 74.3643 29.0591C70.3319 32.162 60.5992 35.2691 50.3941 35.1748C40.9111 35.0873 30.9684 32.0805 26.1158 27.6458Z"
          fill="#FEFEFE"/>
    <path fill-rule="evenodd" clip-rule="evenodd"
          d="M94.6585 19.0838C89.8405 28.013 85.0736 29.9942 80.4816 25.5502C69.7704 32.938 54.4163 35.5685 41.0271 33.4369C34.2436 32.3569 27.3688 29.4499 20.3569 23.7967C20.3989 24.1485 20.4405 24.5006 20.4825 24.8524L20.7345 26.4095C21.7107 26.9165 22.447 27.5278 23.8082 28.7183C25.2169 29.9504 26.8935 31.4782 28.591 33.1581C34.0852 38.1172 40.2042 41.1935 46.7459 42.4768C52.6138 43.628 57.6216 43.5121 64.0347 42.0789C71.0091 40.5206 79.2515 37.5052 85.3272 32.7942C88.3758 30.4303 90.6516 27.5926 92.4052 24.3917C93.3263 22.71 94.1128 20.836 94.6585 19.0838Z"
          fill="#CEE5F1"/>
    <path fill-rule="evenodd" clip-rule="evenodd"
          d="M76.4187 30.8779C76.4187 30.8779 76.3675 32.5796 76.3265 34.5196C76.2853 36.4594 76.5 38.0311 76.2635 38.8756C76.0268 39.7198 75.18 41.0956 73.1298 43.2352C71.0795 45.3747 67.3779 48.3555 66.9946 48.5499C66.611 48.7442 66.0903 48.5265 66.3919 47.7987C66.6932 47.071 68.2061 45.0423 68.4484 43.6014C68.6907 42.1606 69.4135 39.9549 70.1568 38.2553C70.9003 36.5557 72.1426 34.5379 73.6461 33.0167C75.1495 31.4954 76.4187 30.8779 76.4187 30.8779Z"
          fill="#6BACC3"/>
    <path fill-rule="evenodd" clip-rule="evenodd"
          d="M75.8137 31.2322C75.5573 31.654 75.3282 32.1506 75.2569 32.6539C75.07 33.9734 75.1886 36.1452 75.0642 37.522C74.9398 38.8987 74.8845 39.02 74.6241 40.0146C74.3636 41.0089 73.9911 41.4712 73.9911 41.4712C73.9911 41.4712 74.368 40.3826 74.3362 38.8632C74.3043 37.3436 74.2818 35.317 74.2818 35.317C74.2818 35.317 74.2204 35.2897 73.911 37.2998C73.6018 39.31 73.6402 39.5173 73.2405 40.7856C72.8407 42.0539 72.3024 42.8806 72.3024 42.8806C72.3024 42.8806 72.5389 42.0363 72.8555 40.2047C73.1721 38.3731 73.1726 36.9119 73.1606 36.6143C73.1483 36.3164 73.0109 38.1109 72.2749 39.9893C71.5386 41.8675 70.5512 43.4874 70.3527 43.7936C70.1544 44.0998 71.0515 41.738 71.6087 39.8967C72.1658 38.0556 72.1556 37.0719 72.1556 37.0719C72.1556 37.0719 71.684 38.7905 70.8565 40.6425C70.0289 42.4945 69.3366 43.238 69.1636 43.4237C68.9906 43.6097 70.4078 40.7201 70.6925 39.5757C70.9769 38.431 71.0367 37.6832 71.0367 37.6832C71.0367 37.6832 70.0565 39.1859 69.4235 40.1153C69.6535 39.4701 69.9041 38.8334 70.1568 38.2552C70.9002 36.5557 72.1426 34.5378 73.646 33.0166C74.5123 32.1399 75.3009 31.5634 75.8137 31.2322Z"
          fill="#4083A6"/>
</svg>
