<svg width="63" height="45" viewBox="0 0 63 45" fill="none" xmlns="http://www.w3.org/2000/svg">
    <path d="M7.23327 23.6296C15.0097 20.3714 30.2634 20.3165 37.1189 23.2105C39.0047 24.0065 42.4907 25.2709 44.1352 25.7419C48.6943 27.0471 51.309 27.0686 55.1331 27.898C59.8292 28.9167 62.2011 31.0605 62.2695 33.7007L62.28 33.7005C62.3481 36.3519 62.8481 37.9107 58.1938 39.8806C54.4898 41.4481 50.1741 42.0822 45.6603 42.8087C34.9776 44.5276 22.0485 45.8902 12.6488 42.1984C8.80146 40.6875 5.7285 38.4416 3.88665 36.1472C2.09359 33.9134 2.19684 32.4801 2.1264 30.1376C2.1555 27.3481 2.81655 25.4805 7.23327 23.6296Z"
          fill="#3E4143"/>
    <path fill-rule="evenodd" clip-rule="evenodd"
          d="M3.06265 13.4077C3.0095 13.6595 2.99243 14.2768 2.99528 15.0465C2.99243 15.5706 3.00381 16.1138 3.02197 16.7011C3.05959 18.2013 3.12434 19.7415 3.13615 20.2678C3.24574 25.1664 5.51218 29.3379 8.26707 33.1286C9.00666 34.146 10.7096 35.9666 11.7506 36.865L12.7542 37.6437C14.5379 38.9418 16.3338 39.978 18.6418 40.7003C26.5576 43.1769 35.6717 41.3489 43.5621 39.1222C47.8528 37.9115 51.8887 36.8805 55.1309 34.3446C58.6744 31.5731 58.1645 29.0903 58.0569 24.9221C57.9862 22.1875 57.7137 21.2675 56.3839 19.3967C55.5398 18.209 53.9749 16.8665 52.3898 16.1871C50.8105 15.5101 48.7989 14.9579 47.1266 14.3813C42.2557 12.7018 39.6203 11.1043 35.6507 8.10766C34.945 7.57502 34.2566 7.09705 33.5778 6.54778C27.8259 1.89241 13.9331 1.29873 6.96488 6.70178C6.81788 6.81596 6.64113 6.95837 6.48385 7.08371C6.30316 7.22765 6.16952 7.38099 5.99868 7.52864C5.07732 8.32488 4.3222 9.48183 3.78364 10.6451C3.76658 10.6806 3.74886 10.7186 3.73092 10.7589C3.62723 10.9807 3.56336 11.1167 3.54039 11.2392C3.34549 11.7839 3.15693 12.4725 3.10246 12.9853C3.08737 13.127 3.07425 13.2677 3.06265 13.4077Z"
          fill="#2E2E2D"/>
    <path d="M5.30541 4.59908C13.0326 -1.38233 28.3344 -1.14477 35.2779 4.47527C37.188 6.02137 40.714 8.48774 42.3745 9.41391C46.978 11.9818 49.6016 12.0804 53.4568 13.7331C58.1914 15.7624 60.6199 19.865 60.7485 24.8542L60.759 24.8539C60.8879 29.8643 61.4249 32.82 56.8006 36.437C53.1204 39.3153 48.8054 40.4167 44.2935 41.688C33.6154 44.6962 20.6759 46.9815 11.1615 39.7972C7.26736 36.857 4.13359 32.5457 2.23333 28.1701C0.383612 23.9107 0.454491 21.2052 0.330462 16.7785C0.296119 11.5099 0.916696 7.99644 5.30541 4.59908Z"
          fill="#21211D"/>
    <path fill-rule="evenodd" clip-rule="evenodd"
          d="M3.13541 20.268C3.24522 25.1664 5.51165 29.3379 8.26655 33.1286C9.00591 34.1462 10.7091 35.9666 11.7499 36.865L12.7535 37.6437C14.5371 38.9418 16.3331 39.978 18.6413 40.7003C26.5568 43.1769 35.6712 41.3489 43.5616 39.1222C47.8523 37.9115 51.8882 36.8805 55.1302 34.3446C58.6739 31.5731 58.1638 29.0903 58.0564 24.9221C57.9857 22.1875 57.7129 21.2675 56.3834 19.3967C55.539 18.2092 53.9741 16.8665 52.3893 16.1871C50.8097 15.5101 48.7981 14.9579 47.126 14.3813C42.2552 12.7018 39.6195 11.1043 35.6499 8.10766C34.9443 7.57502 34.2561 7.09705 33.5771 6.54778C27.8254 1.89241 13.9325 1.29873 6.96413 6.70178C6.81713 6.81596 6.6406 6.95837 6.48333 7.08371C6.30242 7.22765 6.16877 7.3812 5.99793 7.52864C5.07657 8.32488 4.32145 9.48183 3.78312 10.6451C3.53025 11.1638 3.17959 12.2536 3.10194 12.9855C2.87772 15.094 3.06126 16.9549 3.13541 20.268Z"
          fill="#ECCEC6" stroke="#2E2E2D" stroke-width="0.755906" stroke-miterlimit="22.9256"/>
    <path fill-rule="evenodd" clip-rule="evenodd"
          d="M25.6979 33.0509C23.3279 33.1452 19.1245 31.9318 17.2383 31.0756C15.1827 30.1427 13.2499 28.9313 11.5863 27.4838L10.2499 26.1796C8.3451 23.9565 8.07845 23.8992 6.24404 20.8768C3.53268 16.4098 3.27083 13.6783 3.08096 13.3379C2.8679 13.9239 3.11159 19.1962 3.13544 20.268C3.24525 25.1664 5.51168 29.3379 8.26657 33.1286C9.00594 34.1462 10.7091 35.9666 11.7499 36.865L12.7535 37.6437C14.5372 38.9418 16.3331 39.978 18.6413 40.7003C26.5569 43.1769 35.6712 41.3489 43.5616 39.1222C47.8523 37.9115 51.8882 36.8805 55.1302 34.3446C58.6739 31.5731 58.1638 29.0903 58.0564 24.9221C57.9857 22.1875 57.713 21.2675 56.3834 19.3967C55.5391 18.209 53.9742 16.8665 52.3893 16.1871C50.8098 15.5101 48.7982 14.9579 47.1261 14.3813C42.2552 12.7018 39.6196 11.1043 35.65 8.10766C34.9443 7.57502 34.2559 7.09705 33.5771 6.54778C27.8254 1.89241 13.9326 1.29873 6.96416 6.70178C6.81716 6.81596 6.64063 6.95837 6.48335 7.08371C6.30245 7.22765 6.16879 7.3812 5.99795 7.52864C5.07659 8.32488 4.32148 9.48183 3.78314 10.6451C3.46902 11.3239 3.44322 11.2926 3.72955 11.972C6.43414 18.3846 9.41915 25.5002 15.4561 29.0697C17.7672 30.436 20.2309 31.4466 22.9047 32.2536C23.6069 32.4656 25.1427 32.7878 25.6979 33.0509Z"
          fill="#5A1412"/>
    <path fill-rule="evenodd" clip-rule="evenodd"
          d="M17.629 5.18285C14.8999 5.47334 12.6278 6.0679 10.3786 7.14413C9.86564 7.38956 9.42923 7.65665 8.96286 7.96093C7.71535 8.77533 6.91693 11.0074 7.24592 12.8329C7.80964 15.9618 9.58913 19.7617 11.3997 22.2823C11.7455 22.764 12.0463 23.1564 12.3967 23.579L13.1961 24.4975C13.3094 24.6124 13.3857 24.6469 13.5078 24.7548C13.7127 24.9359 13.8462 25.0853 14.0601 25.2745C15.6609 26.6911 16.6577 27.3773 18.8321 28.3943C21.2219 29.5121 23.0497 30.0351 26.026 30.186C31.7948 30.4785 36.9137 29.4204 42.299 28.0955C45.5211 27.3025 50.3474 25.9574 53.0366 23.9889C53.5509 23.6123 54.3161 22.7204 54.4274 21.9868C54.521 21.3697 54.3034 20.7021 54.0709 20.2016C53.7279 19.4631 52.2697 18.4875 51.5769 18.2072C51.0471 17.9929 50.46 17.8102 49.8985 17.6204C42.8028 15.2222 40.8071 14.6535 34.8585 10.2451C31.7672 7.95415 30.0463 6.35949 25.9536 5.5965C23.1265 5.06954 20.5663 4.86982 17.629 5.18285Z"
          fill="#ECCEC6"/>
    <path fill-rule="evenodd" clip-rule="evenodd"
          d="M26.7418 13.9529C26.4992 14.2852 26.3511 14.7301 26.0689 15.1142C25.9184 15.3185 25.8245 15.4537 25.6456 15.6208C25.412 15.8394 25.3273 15.8748 25.1259 16.0898C24.9894 16.4466 28.0381 22.3088 28.3773 22.8983C29.0064 23.9916 29.62 25.0272 30.2935 26.0109C30.6604 26.5466 30.9662 26.9766 31.3287 27.4846C31.9678 28.3803 31.7069 28.2896 33.0609 28.1259C37.2252 27.6226 45.6384 25.6644 49.2972 24.0065C49.9018 23.7326 50.4309 23.4701 50.9848 23.1705C51.5481 22.866 52.0711 22.5396 52.4093 22.0842C52.9835 21.3109 52.3161 20.8242 51.8941 20.4989C51.3488 20.0787 51.0517 19.8984 50.2726 19.6377C46.5077 18.3775 42.9881 17.3557 39.5667 15.4712C37.8537 14.5278 38.3353 14.4842 36.063 14.0218C32.5521 13.3069 30.1301 13.6276 26.7418 13.9529Z"
          fill="#DA5C50"/>
    <path fill-rule="evenodd" clip-rule="evenodd"
          d="M28.9212 28.4481C28.6479 26.9781 27.54 24.0049 26.9754 22.5358C26.1689 20.4376 25.1099 18.9086 23.8049 17.8949C23.396 17.5773 23.0036 17.1844 22.5891 17.2386C20.8822 17.4615 19.5382 17.7153 17.6548 16.8659C16.1494 16.1869 15.6489 15.3347 15.433 15.2476C14.7584 14.9757 12.889 15.8358 12.4443 16.1552C11.5938 16.7657 11.1812 17.9922 11.4159 18.9107C11.5113 19.2835 12.6503 20.9589 12.8995 21.304C15.3836 24.7467 17.9379 26.2055 21.921 27.7326C23.4059 28.302 27.1434 28.5474 28.9212 28.4481Z"
          fill="#DA5C50"/>
    <path fill-rule="evenodd" clip-rule="evenodd"
          d="M26.7652 11.823C27.5461 12.0514 29.2849 12.1297 30.1833 12.0882C31.3639 12.0337 32.3167 11.799 33.155 11.2526L30.9537 9.57323C26.1507 6.07853 16.9163 6.08444 11.484 8.60353C10.3948 9.10861 9.74121 9.4562 9.28774 10.4163C7.37743 14.4598 14.2717 15.8539 14.6893 12.5187C14.8551 11.1961 15.3991 10.6068 16.0606 9.92695C17.3348 8.61753 19.9648 7.92344 22.2693 8.32616C24.509 8.71771 26.1299 9.89129 26.7652 11.823Z"
          fill="#DA5C50"/>
    <path fill-rule="evenodd" clip-rule="evenodd"
          d="M19.8656 10.0857C18.1992 10.3381 15.751 11.688 16.6481 13.6884C17.3415 15.2343 19.769 15.9409 21.7775 15.5815C23.459 15.2807 25.7652 13.9323 24.9174 11.9995C24.2318 10.4368 21.9083 9.77638 19.8656 10.0857Z"
          fill="white"/>
</svg>
