<svg width="298" height="115" viewBox="0 0 298 115" fill="#EFC329" xmlns="http://www.w3.org/2000/svg">
    <path d="M12.1281 73.4539L29.0434 82.6578C31.4908 84.022 31.8281 84.9794 30.4015 87.395L29.9261 88.1741C28.5154 90.5586 27.558 90.8959 25.1736 89.4851L10.6933 81.2071L8.94402 87.0327L23.6683 94.0603C26.0551 95.158 26.3147 96.0365 25.014 98.3591C23.7133 100.682 22.803 101.004 20.3845 99.9684L3.15697 92.7658C0.582492 91.651 0.181679 90.8185 1.3747 88.2446L7.59335 74.9543C8.7546 72.4428 9.68073 72.0896 12.1281 73.4539Z"/>
    <path d="M38.3803 55.737C44.0518 60.4669 45.4422 68.9639 40.7796 74.5548C36.1842 80.0651 27.822 80.2008 22.0967 75.4261C16.2908 70.5841 14.7838 62.1721 19.4241 56.6081C24.154 50.9366 32.4399 50.7829 38.3803 55.737ZM35.2739 69.7353C37.2914 67.3162 36.2574 64.1296 33.7845 62.0673C31.3116 60.005 27.9284 59.69 26.0678 61.921C24.0279 64.367 24.869 67.8941 27.3419 69.9564C29.9223 72.1084 32.965 72.5039 35.2739 69.7353Z"/>
    <path d="M50.7463 45.6353L61.3983 46.5861C64.1527 46.8963 64.6491 47.5749 64.2623 50.3456L64.1408 51.2036C63.6282 53.985 62.8949 54.5251 60.075 54.1327L48.5661 52.3881L52.1066 56.9959C53.8306 59.1576 53.7853 60.2234 51.8363 62.2702C49.9693 64.2516 49.0237 64.2447 47.2394 62.1758L34.1 47.0477C32.272 44.9241 32.3336 43.9348 34.4136 42.0522L35.7163 40.8789C37.7963 38.9963 38.7253 39.1507 40.3125 41.4215L43.5631 46.171L43.3369 36.6815C43.2592 33.8336 43.9326 33.1623 46.7317 32.8549L46.9831 32.8335C49.7985 32.6027 50.4536 33.1995 50.5312 36.0474L50.7463 45.6353Z"/>
    <path d="M82.3179 26.8087C85.7743 33.335 83.8414 41.7253 77.408 45.1325C71.0673 48.4906 63.2773 45.4477 59.7882 38.8596C56.2499 32.1787 58.0426 23.823 64.4452 20.4322C70.9714 16.9758 78.6977 19.9732 82.3179 26.8087ZM74.139 38.5862C76.9227 37.1119 77.1733 33.7712 75.6662 30.9256C74.1592 28.0801 71.1476 26.5066 68.5804 27.8662C65.7657 29.3569 65.2077 32.9397 66.7148 35.7853C68.2873 38.7546 70.9532 40.2735 74.139 38.5862Z"/>
    <path d="M93.9314 29.1953L95.4374 33.2307C96.4301 35.8509 95.9788 36.7045 93.2256 37.6312C90.5055 38.5467 89.6963 38.1174 88.6924 35.464L82.1431 17.5419C81.195 15.0544 81.7228 13.8796 83.966 12.6445C85.4246 11.8212 86.9833 11.1858 88.6751 10.6164C95.2099 8.41687 100.957 9.47366 102.688 14.6152C104.686 20.5529 101.902 26.1061 93.9314 29.1953ZM92.7969 23.5207C96.4126 22.3037 97.8105 19.6544 97.2188 17.8963C96.7387 16.4699 95.0319 15.678 92.2123 16.627C91.3167 16.9285 90.4325 17.3738 89.7589 17.896L91.9233 23.7778C92.233 23.7105 92.5315 23.61 92.7969 23.5207Z"/>
    <path d="M130.11 4.33047L136.422 23.1697C137.314 25.8626 136.791 26.5842 134.089 27.194L132.515 27.5522C129.744 28.173 128.936 27.5579 128.217 24.8373L125.621 14.3712L123.332 24.875C123.076 26.1565 122.729 26.4247 121.495 26.9058C120.324 27.3414 119.94 27.1548 119.366 26.006L114.712 16.8616L114.413 27.614C114.286 30.3637 113.654 31.0674 110.819 30.8477L110.353 30.8159C107.552 30.5908 106.946 29.9079 107.057 27.0546L108.163 7.16983C108.275 4.98975 108.814 4.37178 111.044 3.90854C113.274 3.4453 113.904 3.84064 114.996 5.79255L120.164 15.4927L122.731 4.73179C123.223 2.49087 123.94 1.8798 126.335 1.78013C128.678 1.58231 129.365 2.11035 130.11 4.33047Z"/>
    <path d="M150.933 13.7376L144.064 25.4314C142.997 27.2061 142.399 27.5503 140.334 27.5302L140.264 27.5295C138.234 27.5098 137.819 26.9457 137.838 24.9858L138.395 3.74524C138.527 0.911397 139.164 0.252551 141.997 0.455093L142.906 0.533934C145.74 0.736475 146.293 1.44188 146.09 4.24005L145.425 11.4789L151.108 2.95875C152.528 0.907452 153.373 0.460638 155.996 0.661139C158.514 0.860619 159.102 1.53137 159.078 4.05125L158.849 24C158.822 26.8348 158.15 27.5283 155.314 27.6058L153.459 27.6228C150.693 27.7009 150 26.9941 150.201 24.2309L150.933 13.7376Z"/>
    <path d="M199.846 11.3016L198.481 31.1231C198.276 33.9524 197.517 34.4197 194.787 33.9505L193.196 33.6804C190.397 33.1951 189.886 32.3181 190.261 29.5293L191.861 18.8651L185.732 27.6973C185.006 28.7839 184.583 28.8992 183.258 28.8721C182.01 28.8272 181.726 28.5079 181.635 27.2271L180.828 16.9983L176.443 26.8205C175.275 29.313 174.422 29.7219 171.886 28.4355L171.468 28.2282C168.966 26.9499 168.667 26.0875 169.859 23.4928L178.479 5.5396C179.416 3.56768 180.15 3.20259 182.388 3.62651C184.625 4.05043 185.057 4.65665 185.32 6.87778L186.39 17.8166L192.873 8.85288C194.184 6.96999 195.081 6.67942 197.332 7.50219C199.573 8.21471 200.006 8.96522 199.846 11.3016Z"/>
    <path d="M209.992 30.5748L214.201 32.133L215.26 23.6062L209.992 30.5748ZM222.203 20.2887L220.964 40.3723C220.765 43.1552 220.059 43.7993 217.283 43.412C213.497 42.8839 212.946 42.1419 213.283 39.3055L213.547 37.2405L207.012 34.8822L205.877 36.4082C204.245 38.7096 203.218 38.8673 200.949 37.2498L200.06 36.6646C197.791 35.047 197.654 34.1446 199.499 32.0526L213.392 16.1565C215.251 14.0325 216.274 13.7966 218.856 15.0549C221.885 16.5115 222.366 17.4135 222.203 20.2887Z"/>
    <path d="M249.947 37.7997L238.867 53.5498C237.231 55.8249 236.242 56.0504 234.005 54.3565L233.286 53.7951C231.079 52.1206 230.853 51.131 232.528 48.9237L236.573 43.4593L231.56 41.5192L228.184 46.9239C226.82 49.1693 225.86 49.2879 223.73 47.7491C221.572 46.191 221.356 45.2498 222.662 42.9658L231.664 26.9289C233.105 24.4407 233.871 24.2352 236.485 25.4234L237.321 25.8098C239.867 27.0371 240.024 27.9395 238.564 30.3307L235.149 35.7937L239.999 38.802L244.045 33.3376C245.661 31.0917 246.719 30.9534 248.926 32.6279L249.169 32.8312C251.406 34.5251 251.602 35.4954 249.947 37.7997Z"/>
    <path d="M272.376 54.9351L272.455 55.355C272.956 58.0967 272.666 58.7929 269.898 59.17L245.355 62.2379C242.562 62.5905 241.714 62.0059 241.288 59.2386L241.181 58.5467C240.706 55.8295 241.316 55.105 244.062 54.9509L252.399 54.5865L252.569 43.15C252.539 40.3783 253.349 39.8001 256.076 40.166L257.712 40.3954C260.513 40.7852 261.042 41.5962 260.676 44.3722L259.295 53.7926L268.014 52.1865C270.806 51.6854 271.874 52.0943 272.376 54.9351Z"/>
    <path d="M280.091 64.7862L288.278 76.6227C289.886 78.9178 289.667 79.934 287.287 81.346L270.734 91.4551C268.325 92.8861 267.483 92.6797 265.945 90.2983L265.394 89.4457C263.894 87.1231 264.171 86.0689 266.618 84.6967L281.333 76.192L277.491 71.3404L267.901 77.9098C264.166 80.4477 260.411 80.9564 256.876 77.0315C255.126 75.1616 255.209 74.7745 256.761 73.564L258.411 72.2482C260.846 70.3418 260.435 72.6076 262.245 72.3135C263.13 72.2001 264.109 71.6512 265.295 70.8432L275.24 63.9198C277.535 62.3123 278.483 62.4911 280.091 64.7862Z"/>
    <path d="M279.827 98.8545L281.579 102.987L288.512 97.9109L279.827 98.8545ZM295.687 100.69L280.219 113.559C278.057 115.323 277.104 115.25 275.482 112.964C273.271 109.847 273.433 108.936 275.729 107.237L277.413 106.013L274.648 99.6393L272.759 99.8594C269.965 100.25 269.146 99.6104 268.768 96.8494L268.584 95.8009C268.205 93.0399 268.769 92.322 271.557 92.2306L292.653 91.4428C295.474 91.3398 296.347 91.9228 297.202 94.6647C298.219 97.8688 297.892 98.8373 295.687 100.69Z"/>
</svg>
